# xmcd
#
# Track frame offsets: 
#        187
#        18037
#        37200
#        52070
#        66340
#        84905
#        100735
#        114737
#        127170
#        142875
#
# Disc length: 2136 seconds
#
# Revision: 3
# Processed by: cddbd v1.5.2PL0 Copyright (c) Steve Scherf et al.
# Submitted via: ExactAudioCopyFreeDBPlugin 1.0
#
DISCID=8908560a
DTITLE=Oak Ridge Boys - The Long Haul
DYEAR=1992
DGENRE=Country
TTITLE0=Fall
TTITLE1=The Power Of Goodbye
TTITLE2=Where Can I Surrender
TTITLE3=Standin' By The River
TTITLE4=Stay With Me
TTITLE5=Come On Rain
TTITLE6=Gimme Me Some Of Your Love
TTITLE7=Fear Of The Flame
TTITLE8=Something Worth Holding On To
TTITLE9=Until You're Back In My Arms Again
EXTD=
EXTT0=
EXTT1=
EXTT2=
EXTT3=
EXTT4=
EXTT5=
EXTT6=
EXTT7=
EXTT8=
EXTT9=
PLAYORDER=
